PathFileType	4	(X/Y/Z)	C:\Users\italobelli\Desktop\GitHub\PTbot_officialCBL\Personal_Results\ABD01_noisy2.trc
DataRate	CameraRate	NumFrames	NumMarkers	Units	OrigDataRate	OrigDataStartFrame	OrigNumFrames
104.666667	104.666667	42	9	m	104.666667	688	1100
Frame#	Time		gu		centelbow		EpL		centpxt8		centijc7		ij		ts		aa		ai
			X1	Y1	Z1	X2	Y2	Z2	X3	Y3	Z3	X4	Y4	Z4	X5	Y5	Z5	X6	Y6	Z6	X7	Y7	Z7	X8	Y8	Z8	X9	Y9	Z9

688	6.5637	-0.093107	0.060951	0.10133	-0.018008	0.26707	0.20503	-0.040984	0.27939	0.18606	-0.046816	-0.15316	-0.008669	-0.046816	0.031938	-0.008669	0	0	0	-0.14272	-0.020155	0.050403	-0.13593	0.084836	0.1063	-0.13342	-0.069249	0.15245
689	6.5732	-0.093326	0.060961	0.10121	-0.017625	0.26739	0.20362	-0.040649	0.27967	0.18469	-0.046816	-0.15316	-0.008669	-0.046816	0.031938	-0.008669	0	0	0	-0.14291	-0.020185	0.05053	-0.13604	0.084909	0.10619	-0.13347	-0.069072	0.15267
690	6.5828	-0.093549	0.060972	0.1011	-0.01726	0.2677	0.2022	-0.04033	0.27995	0.18331	-0.046816	-0.15316	-0.008669	-0.046816	0.031938	-0.008669	0	0	0	-0.1431	-0.020213	0.050656	-0.13615	0.084984	0.10607	-0.13352	-0.06889	0.15289
691	6.5924	-0.093777	0.060983	0.10098	-0.016911	0.26801	0.20078	-0.040028	0.28023	0.18194	-0.046816	-0.15316	-0.008669	-0.046816	0.031938	-0.008669	0	0	0	-0.1433	-0.02024	0.05078	-0.13627	0.085061	0.10596	-0.13359	-0.068705	0.1531
692	6.6019	-0.094009	0.060995	0.10087	-0.016579	0.26832	0.19936	-0.039742	0.2805	0.18057	-0.046816	-0.15316	-0.008669	-0.046816	0.031938	-0.008669	0	0	0	-0.1435	-0.020266	0.050902	-0.13639	0.085139	0.10584	-0.13365	-0.068517	0.15331
693	6.6115	-0.094244	0.061007	0.10076	-0.016263	0.26862	0.19794	-0.039472	0.28077	0.1792	-0.046816	-0.15316	-0.008669	-0.046816	0.031938	-0.008669	0	0	0	-0.14371	-0.020289	0.051023	-0.1365	0.085218	0.10572	-0.13373	-0.068327	0.15352
694	6.621	-0.094482	0.06102	0.10065	-0.015965	0.26892	0.19652	-0.039218	0.28103	0.17783	-0.046816	-0.15316	-0.008669	-0.046816	0.031938	-0.008669	0	0	0	-0.14392	-0.020312	0.051142	-0.13662	0.085299	0.1056	-0.1338	-0.068134	0.15372
695	6.6306	-0.094723	0.061033	0.10054	-0.015683	0.26922	0.19511	-0.038981	0.2813	0.17647	-0.046816	-0.15316	-0.008669	-0.046816	0.031938	-0.008669	0	0	0	-0.14413	-0.020333	0.051259	-0.13674	0.085381	0.10548	-0.13389	-0.067939	0.15392
696	6.6401	-0.094967	0.061046	0.10043	-0.015417	0.26952	0.1937	-0.03876	0.28156	0.17512	-0.046816	-0.15316	-0.008669	-0.046816	0.031938	-0.008669	0	0	0	-0.14435	-0.020353	0.051374	-0.13686	0.085464	0.10536	-0.13398	-0.067742	0.15412
697	6.6497	-0.095213	0.06106	0.10033	-0.015169	0.26981	0.1923	-0.038555	0.28182	0.17377	-0.046816	-0.15316	-0.008669	-0.046816	0.031938	-0.008669	0	0	0	-0.14457	-0.020371	0.051487	-0.13698	0.085547	0.10524	-0.13407	-0.067543	0.15431
698	6.6592	-0.095461	0.061074	0.10022	-0.014937	0.2701	0.19091	-0.038366	0.28207	0.17243	-0.046816	-0.15316	-0.008669	-0.046816	0.031938	-0.008669	0	0	0	-0.1448	-0.020388	0.051599	-0.1371	0.085632	0.10511	-0.13417	-0.067343	0.15449
699	6.6688	-0.09571	0.061088	0.10012	-0.014723	0.27038	0.18953	-0.038193	0.28232	0.17111	-0.046816	-0.15316	-0.008669	-0.046816	0.031938	-0.008669	0	0	0	-0.14502	-0.020404	0.051708	-0.13722	0.085717	0.10499	-0.13427	-0.067142	0.15468
700	6.6783	-0.09596	0.061103	0.10002	-0.014525	0.27067	0.18816	-0.038036	0.28257	0.1698	-0.046816	-0.15316	-0.008669	-0.046816	0.031938	-0.008669	0	0	0	-0.14525	-0.020419	0.051814	-0.13734	0.085803	0.10486	-0.13437	-0.066941	0.15486
701	6.6879	-0.096212	0.061118	0.099919	-0.014344	0.27094	0.18681	-0.037896	0.28282	0.1685	-0.046816	-0.15316	-0.008669	-0.046816	0.031938	-0.008669	0	0	0	-0.14548	-0.020433	0.051919	-0.13746	0.08589	0.10474	-0.13448	-0.066739	0.15503
702	6.6975	-0.096463	0.061134	0.099821	-0.01418	0.27122	0.18547	-0.037771	0.28307	0.16722	-0.046816	-0.15316	-0.008669	-0.046816	0.031938	-0.008669	0	0	0	-0.14571	-0.020445	0.052021	-0.13758	0.085977	0.10461	-0.13459	-0.066537	0.15521
703	6.707	-0.096715	0.061149	0.099725	-0.014033	0.27149	0.18416	-0.037662	0.28331	0.16595	-0.046816	-0.15316	-0.008669	-0.046816	0.031938	-0.008669	0	0	0	-0.14594	-0.020457	0.052121	-0.13771	0.086065	0.10449	-0.1347	-0.066335	0.15537
704	6.7166	-0.096966	0.061165	0.09963	-0.013903	0.27176	0.18286	-0.037569	0.28355	0.16471	-0.046816	-0.15316	-0.008669	-0.046816	0.031938	-0.008669	0	0	0	-0.14617	-0.020467	0.052218	-0.13783	0.086152	0.10436	-0.13482	-0.066134	0.15554
705	6.7261	-0.097217	0.061182	0.099537	-0.01379	0.27203	0.18159	-0.037492	0.28378	0.16348	-0.046816	-0.15316	-0.008669	-0.046816	0.031938	-0.008669	0	0	0	-0.1464	-0.020477	0.052313	-0.13795	0.08624	0.10424	-0.13493	-0.065933	0.1557
706	6.7357	-0.097467	0.061198	0.099446	-0.013694	0.27229	0.18034	-0.037431	0.28402	0.16228	-0.046816	-0.15316	-0.008669	-0.046816	0.031938	-0.008669	0	0	0	-0.14662	-0.020485	0.052405	-0.13807	0.086328	0.10411	-0.13505	-0.065734	0.15586
707	6.7452	-0.097715	0.061215	0.099356	-0.013614	0.27255	0.17911	-0.037386	0.28425	0.1611	-0.046816	-0.15316	-0.008669	-0.046816	0.031938	-0.008669	0	0	0	-0.14685	-0.020493	0.052495	-0.1382	0.086416	0.10399	-0.13517	-0.065536	0.15601
708	6.7548	-0.097962	0.061232	0.099269	-0.013552	0.2728	0.17791	-0.037357	0.28448	0.15995	-0.046816	-0.15316	-0.008669	-0.046816	0.031938	-0.008669	0	0	0	-0.14707	-0.0205	0.052581	-0.13832	0.086504	0.10387	-0.1353	-0.06534	0.15616
709	6.7643	-0.098207	0.061249	0.099183	-0.013508	0.27306	0.17675	-0.037343	0.2847	0.15882	-0.046816	-0.15316	-0.008669	-0.046816	0.031938	-0.008669	0	0	0	-0.14729	-0.020506	0.052665	-0.13844	0.086591	0.10374	-0.13542	-0.065146	0.1563
710	6.7739	-0.098449	0.061266	0.099099	-0.01348	0.2733	0.17561	-0.037346	0.28492	0.15773	-0.046816	-0.15316	-0.008669	-0.046816	0.031938	-0.008669	0	0	0	-0.14751	-0.020511	0.052746	-0.13856	0.086679	0.10362	-0.13555	-0.064955	0.15645
711	6.7834	-0.098689	0.061283	0.099017	-0.013469	0.27355	0.17451	-0.037364	0.28514	0.15666	-0.046816	-0.15316	-0.008669	-0.046816	0.031938	-0.008669	0	0	0	-0.14772	-0.020516	0.052824	-0.13868	0.086765	0.1035	-0.13567	-0.064766	0.15658
712	6.793	-0.098925	0.061301	0.098936	-0.013476	0.27379	0.17344	-0.037397	0.28536	0.15563	-0.046816	-0.15316	-0.008669	-0.046816	0.031938	-0.008669	0	0	0	-0.14793	-0.02052	0.052899	-0.13881	0.086852	0.10338	-0.1358	-0.064579	0.15672
713	6.8025	-0.099158	0.061319	0.098858	-0.013499	0.27403	0.17241	-0.037447	0.28557	0.15462	-0.046816	-0.15316	-0.008669	-0.046816	0.031938	-0.008669	0	0	0	-0.14813	-0.020523	0.052971	-0.13893	0.086937	0.10326	-0.13592	-0.064396	0.15685
714	6.8121	-0.099388	0.061336	0.098782	-0.01354	0.27426	0.17141	-0.037512	0.28579	0.15366	-0.046816	-0.15316	-0.008669	-0.046816	0.031938	-0.008669	0	0	0	-0.14833	-0.020526	0.05304	-0.13905	0.087022	0.10315	-0.13605	-0.064217	0.15697
715	6.8217	-0.099613	0.061354	0.098707	-0.013598	0.2745	0.17046	-0.037592	0.28599	0.15273	-0.046816	-0.15316	-0.008669	-0.046816	0.031938	-0.008669	0	0	0	-0.14853	-0.020528	0.053105	-0.13917	0.087106	0.10303	-0.13617	-0.064041	0.15709
716	6.8312	-0.099834	0.061372	0.098635	-0.013674	0.27472	0.16955	-0.037688	0.2862	0.15183	-0.046816	-0.15316	-0.008669	-0.046816	0.031938	-0.008669	0	0	0	-0.14872	-0.02053	0.053167	-0.13929	0.08719	0.10292	-0.1363	-0.06387	0.15721
717	6.8408	-0.10005	0.06139	0.098565	-0.013766	0.27495	0.16868	-0.0378	0.2864	0.15098	-0.046816	-0.15316	-0.008669	-0.046816	0.031938	-0.008669	0	0	0	-0.1489	-0.020532	0.053226	-0.13941	0.087272	0.1028	-0.13642	-0.063703	0.15732
718	6.8503	-0.10026	0.061408	0.098497	-0.013876	0.27517	0.16786	-0.037927	0.2866	0.15017	-0.046816	-0.15316	-0.008669	-0.046816	0.031938	-0.008669	0	0	0	-0.14907	-0.020532	0.053281	-0.13953	0.087353	0.10269	-0.13654	-0.063541	0.15743
719	6.8599	-0.10047	0.061427	0.098431	-0.014003	0.27539	0.16709	-0.03807	0.2868	0.1494	-0.046816	-0.15316	-0.008669	-0.046816	0.031938	-0.008669	0	0	0	-0.14924	-0.020533	0.053333	-0.13965	0.087433	0.10259	-0.13666	-0.063383	0.15754
720	6.8694	-0.10067	0.061445	0.098367	-0.014148	0.2756	0.16636	-0.038228	0.28699	0.14867	-0.046816	-0.15316	-0.008669	-0.046816	0.031938	-0.008669	0	0	0	-0.1494	-0.020533	0.053381	-0.13977	0.087511	0.10248	-0.13678	-0.063231	0.15764
721	6.879	-0.10086	0.061463	0.098305	-0.01431	0.27581	0.16569	-0.038402	0.28718	0.148	-0.046816	-0.15316	-0.008669	-0.046816	0.031938	-0.008669	0	0	0	-0.14955	-0.020533	0.053425	-0.13988	0.087588	0.10238	-0.1369	-0.063085	0.15774
722	6.8885	-0.10105	0.061481	0.098246	-0.014489	0.27602	0.16507	-0.038591	0.28737	0.14736	-0.046816	-0.15316	-0.008669	-0.046816	0.031938	-0.008669	0	0	0	-0.14969	-0.020533	0.053466	-0.14	0.087664	0.10228	-0.13701	-0.062945	0.15783
723	6.8981	-0.10123	0.061499	0.098189	-0.014686	0.27622	0.1645	-0.038796	0.28755	0.14678	-0.046816	-0.15316	-0.008669	-0.046816	0.031938	-0.008669	0	0	0	-0.14983	-0.020533	0.053503	-0.14012	0.087737	0.10218	-0.13712	-0.06281	0.15792
724	6.9076	-0.1014	0.061517	0.098134	-0.0149	0.27642	0.16399	-0.039015	0.28774	0.14625	-0.046816	-0.15316	-0.008669	-0.046816	0.031938	-0.008669	0	0	0	-0.14995	-0.020532	0.053536	-0.14023	0.08781	0.10208	-0.13723	-0.062683	0.15801
725	6.9172	-0.10156	0.061536	0.098082	-0.015132	0.27662	0.16354	-0.039251	0.28791	0.14577	-0.046816	-0.15316	-0.008669	-0.046816	0.031938	-0.008669	0	0	0	-0.15007	-0.020532	0.053565	-0.14034	0.08788	0.10199	-0.13733	-0.062562	0.15809
726	6.9268	-0.10172	0.061554	0.098031	-0.015381	0.27681	0.16315	-0.039501	0.28809	0.14534	-0.046816	-0.15316	-0.008669	-0.046816	0.031938	-0.008669	0	0	0	-0.15017	-0.020531	0.05359	-0.14046	0.087949	0.1019	-0.13743	-0.062448	0.15817
727	6.9363	-0.10187	0.061572	0.097984	-0.015648	0.277	0.16282	-0.039767	0.28826	0.14497	-0.046816	-0.15316	-0.008669	-0.046816	0.031938	-0.008669	0	0	0	-0.15026	-0.02053	0.053611	-0.14057	0.088015	0.10181	-0.13753	-0.062342	0.15824
728	6.9459	-0.10201	0.061589	0.097938	-0.015932	0.27718	0.16255	-0.040048	0.28843	0.14465	-0.046816	-0.15316	-0.008669	-0.046816	0.031938	-0.008669	0	0	0	-0.15034	-0.02053	0.053627	-0.14068	0.088079	0.10173	-0.13762	-0.062243	0.15831
729	6.9554	-0.10214	0.061607	0.097896	-0.016234	0.27736	0.16235	-0.040344	0.2886	0.14439	-0.046816	-0.15316	-0.008669	-0.046816	0.031938	-0.008669	0	0	0	-0.15041	-0.020529	0.05364	-0.14079	0.088141	0.10165	-0.13771	-0.062152	0.15838
